<svg xmlns="http://www.w3.org/2000/svg" viewBox="0 0 300 120">
  <g transform="translate(10, 30)">
    <!-- O -->
    <path d="M 50 0 C 20 0, 0 20, 0 50 C 0 80, 20 100, 50 100 C 80 100, 100 80, 100 50 C 100 20, 80 0, 50 0 Z M 50 24 C 65 24, 76 35, 76 50 C 76 65, 65 76, 50 76 C 35 76, 24 65, 24 50 C 24 35, 35 24, 50 24 Z" fill="#000000"/>
    <!-- L -->
    <path d="M 120 0 L 144 0 L 144 76 L 190 76 L 190 100 L 120 100 Z" fill="#000000"/>
    <!-- A (inverted V) -->
    <path d="M 250 0 L 290 100 L 263 100 L 250 65 L 237 100 L 210 100 Z" fill="#000000"/>
  </g>
</svg>
